<?xml version="1.0" encoding="UTF-8" standalone="no"?>
<svg
   width="120"
   height="120"
   version="1.1"
   id="svg1"
   sodipodi:docname="pineappl-logo-main.svg"
   inkscape:version="1.4 (e7c3feb1, 2024-10-09)"
   xmlns:inkscape="http://www.inkscape.org/namespaces/inkscape"
   xmlns:sodipodi="http://sodipodi.sourceforge.net/DTD/sodipodi-0.dtd"
   xmlns="http://www.w3.org/2000/svg"
   xmlns:svg="http://www.w3.org/2000/svg">
  <sodipodi:namedview
     id="namedview1"
     pagecolor="#ffffff"
     bordercolor="#000000"
     borderopacity="0.25"
     inkscape:showpageshadow="2"
     inkscape:pageopacity="0.0"
     inkscape:pagecheckerboard="0"
     inkscape:deskcolor="#d1d1d1"
     inkscape:zoom="7.6425229"
     inkscape:cx="50.310611"
     inkscape:cy="59.862431"
     inkscape:window-width="2048"
     inkscape:window-height="1172"
     inkscape:window-x="0"
     inkscape:window-y="25"
     inkscape:window-maximized="1"
     inkscape:current-layer="svg1" />
  <defs
     id="defs1">
    <linearGradient
       id="swatch4"
       inkscape:swatch="solid">
      <stop
         style="stop-color:#3b82f6;stop-opacity:1;"
         offset="0"
         id="stop4" />
    </linearGradient>
    <!-- Gradient for pineapple body -->
    <!-- Grid background representing interpolation -->
    <pattern
       patternUnits="userSpaceOnUse"
       height="8"
       width="8"
       y="0"
       x="0"
       id="gridPattern">
      <path
         id="svg_1"
         stroke-width="0.5"
         stroke="#e0e7ff"
         fill="none"
         d="m8,0l-8,0l0,8" />
    </pattern>
  </defs>
  <!-- Top grid background -->
  <rect
     x="30"
     y="45.625"
     width="60"
     height="24"
     fill="#ff6700"
     id="top_grid_bg" />
  <!-- Top grid - simple lines -->
  <g
     id="top_grid"
     stroke="#374151"
     stroke-width="0.6"
     fill="none"
     transform="matrix(1.5,0,0,1.5,-24.044584,-1.1335214)">
    <!-- Horizontal lines -->
    <line
       x1="35.700001"
       y1="31.25"
       x2="76.300003"
       y2="31.25"
       id="line1" />
    <line
       x1="36"
       y1="39.25"
       x2="76"
       y2="39.25"
       id="line2" />
    <line
       x1="36"
       y1="47.25"
       x2="76"
       y2="47.25"
       id="line3" />
    <!-- Vertical lines -->
    <line
       x1="36"
       y1="31.25"
       x2="36"
       y2="47.25"
       id="line4" />
    <line
       x1="44"
       y1="31.25"
       x2="44"
       y2="47.25"
       id="line5" />
    <line
       x1="52"
       y1="31.25"
       x2="52"
       y2="47.25"
       id="line6" />
    <line
       x1="60"
       y1="31.25"
       x2="60"
       y2="47.25"
       id="line7" />
    <line
       x1="68"
       y1="31.25"
       x2="68"
       y2="47.25"
       id="line8" />
    <line
       x1="76"
       y1="31.25"
       x2="76"
       y2="47.25"
       id="line9" />
  </g>
  <!-- Parallel lines top PineAPPL -->
  <rect
     style="fill:#374151;fill-opacity:1;stroke-width:1.5"
     id="rect4"
     width="83"
     height="0.90000004"
     x="19"
     y="69.454056" />
  <!-- Top grid points at nodes -->
  <g
     id="top_grid_points_1">
    <!-- Row 1 -->
    <!-- <circle cx="40" cy="31.25" r="1.5" fill="#374151" /> -->
    <!-- <circle cx="48" cy="31.25" r="1.5" fill="none" stroke="#374151" stroke-width="1.2" /> -->
    <!-- <circle cx="56" cy="31.25" r="1.5" fill="#374151" /> -->
    <!-- <circle cx="64" cy="31.25" r="1.5" fill="none" stroke="#374151" stroke-width="1.2" /> -->
    <!-- <circle cx="72" cy="31.25" r="1.5" fill="#374151" /> -->
  </g>
  <g
     id="top_grid_points_2"
     transform="matrix(1.5,0,0,1.5,-24.044584,-1.1335214)">
    <!-- Row 2 -->
    <!-- <circle cx="40" cy="39.25" r="1.5" fill="none" stroke="#374151" stroke-width="1.2" /> -->
    <circle
       cx="44"
       cy="39.25"
       r="1.5"
       fill="#374151"
       id="circle8" />
    <circle
       cx="52"
       cy="39.25"
       r="1.5"
       fill="#ffffff"
       stroke="#374151"
       stroke-width="1"
       id="circle9" />
    <circle
       cx="60"
       cy="39.25"
       r="1.5"
       fill="#374151"
       id="circle10" />
    <circle
       cx="68"
       cy="39.25"
       r="1.5"
       fill="#ffffff"
       stroke="#374151"
       stroke-width="1"
       id="circle11" />
    <!-- <circle cx="72" cy="39.25" r="1.5" fill="none" stroke="#374151" stroke-width="1.2" /> -->
  </g>
  <g
     id="top_grid_points_3"
     transform="matrix(1.5,0,0,1.5,-24.044584,-1.1335214)">
    <!-- Row 3 -->
    <!-- <circle cx="40" cy="47.25" r="1.5" fill="#374151" /> -->
    <circle
       cx="44"
       cy="47.25"
       r="1.5"
       fill="#ffffff"
       stroke="#374151"
       stroke-width="1"
       id="circle13" />
    <circle
       cx="52"
       cy="47.25"
       r="1.5"
       fill="#374151"
       id="circle14" />
    <circle
       cx="60"
       cy="47.25"
       r="1.5"
       fill="#ffffff"
       stroke="#374151"
       stroke-width="1"
       id="circle15" />
    <circle
       cx="68"
       cy="47.25"
       r="1.5"
       fill="#374151"
       id="circle16" />
    <!-- <circle cx="72" cy="47.25" r="1.5" fill="#374151" /> -->
  </g>
  <!-- PineAPPL text -->
  <text
     id="svg_21"
     fill="#374151"
     font-weight="bold"
     font-size="20px"
     font-family="'Klavika'"
     text-anchor="middle"
     y="85.866478"
     x="59.955414"
     style="stroke-width:1.5">PineAPPL</text>
  <!-- Bottom grid background -->
  <rect
     x="30"
     y="90.125"
     width="60"
     height="24"
     fill="#ff6700"
     id="bottom_grid_bg" />
  <!-- Bottom grid - simple lines -->
  <g
     id="bottom_grid"
     stroke="#374151"
     stroke-width="0.6"
     fill="none"
     transform="matrix(1.5,0,0,1.5,-24.044584,-1.1335214)">
    <!-- Horizontal lines -->
    <line
       x1="35.700001"
       y1="60.75"
       x2="76.300003"
       y2="60.75"
       id="line13" />
    <line
       x1="35.700001"
       y1="68.75"
       x2="76.300003"
       y2="68.75"
       id="line14" />
    <line
       x1="35.700001"
       y1="76.75"
       x2="76.300003"
       y2="76.75"
       id="line15" />
    <!-- Vertical lines -->
    <line
       x1="36"
       y1="60.75"
       x2="36"
       y2="76.75"
       id="line16" />
    <line
       x1="44"
       y1="60.75"
       x2="44"
       y2="76.75"
       id="line17" />
    <line
       x1="52"
       y1="60.75"
       x2="52"
       y2="76.75"
       id="line18" />
    <line
       x1="60"
       y1="60.75"
       x2="60"
       y2="76.75"
       id="line19" />
    <line
       x1="68"
       y1="60.75"
       x2="68"
       y2="76.75"
       id="line20" />
    <line
       x1="76"
       y1="60.75"
       x2="76"
       y2="76.75"
       id="line21" />
  </g>
  <!-- Parallel lines below PineAPPL -->
  <rect
     style="fill:#374151;fill-opacity:1;stroke-width:1.5"
     id="rect4-8"
     width="83"
     height="0.90000004"
     x="19"
     y="89.511658" />
  <!-- Bottom grid points at nodes -->
  <g
     id="bottom_grid_points"
     transform="matrix(1.5,0,0,1.5,-24.044584,-1.1335214)">
    <!-- Row 1 -->
    <!-- <circle cx="40" cy="68.75" r="1.5" fill="#374151" /> -->
    <circle
       cx="44"
       cy="60.75"
       r="1.5"
       fill="#ffffff"
       stroke="#374151"
       stroke-width="1.2"
       id="circle20" />
    <circle
       cx="52"
       cy="60.75"
       r="1.5"
       fill="#374151"
       id="circle21" />
    <circle
       cx="60"
       cy="60.75"
       r="1.5"
       fill="#ffffff"
       stroke="#374151"
       stroke-width="1.2"
       id="circle22" />
    <circle
       cx="68"
       cy="60.75"
       r="1.5"
       fill="#374151"
       id="circle23" />
    <!-- <circle cx="72" cy="60.75" r="1.5" fill="#374151" /> -->
    <!-- Row 2 -->
    <!-- <circle cx="40" cy="60.75" r="1.5" fill="none" stroke="#374151" stroke-width="1.2" /> -->
    <circle
       cx="44"
       cy="68.75"
       r="1.5"
       fill="#374151"
       id="circle25" />
    <circle
       cx="52"
       cy="68.75"
       r="1.5"
       fill="#ffffff"
       stroke="#374151"
       stroke-width="1.2"
       id="circle26" />
    <circle
       cx="60"
       cy="68.75"
       r="1.5"
       fill="#374151"
       id="circle27" />
    <circle
       cx="68"
       cy="68.75"
       r="1.5"
       fill="#ffffff"
       stroke="#374151"
       stroke-width="1.2"
       id="circle28" />
    <!-- <circle cx="72" cy="68.75" r="1.5" fill="none" stroke="#374151" stroke-width="1.2" /> -->
    <!-- Row 3 -->
    <!-- <circle cx="40" cy="76.75" r="1.5" fill="#374151" /> -->
    <!-- <circle cx="48" cy="76.75" r="1.5" fill="#374151" /> -->
    <!-- <circle cx="56" cy="76.75" r="1.5" fill="none" stroke="#374151" stroke-width="1.2" /> -->
    <!-- <circle cx="64" cy="76.75" r="1.5" fill="#374151" /> -->
    <!-- <circle cx="72" cy="76.75" r="1.5" fill="#374151" /> -->
  </g>
  <!-- Pineapple crown elements -->
  <path
     style="fill:#019b45;fill-opacity:1;stroke-width:0.184368"
     d="m 49.31246,49.117695 c -0.175417,-0.136219 -0.466472,-0.468466 -0.646881,-0.738364 -0.371169,-0.555393 -0.17081,-1.188716 0.539876,-1.706101 0.215834,-0.157347 0.391433,-0.409833 0.38968,-0.561384 -0.0026,-0.24223 -0.519496,-0.29785 -4.276605,-0.460044 -2.350465,-0.101484 -4.565191,-0.229516 -4.921614,-0.284536 l -0.648022,-0.09996 1.093097,-0.380842 c 3.227695,-1.124446 7.649333,-1.479319 12.756678,-1.023824 1.589731,0.141759 3.212851,0.207598 3.606929,0.146337 0.394059,-0.06134 1.330626,-0.415612 2.081196,-0.787295 4.275978,-2.117529 5.422788,-2.653825 5.517531,-2.58026 0.05781,0.04486 0.234287,0.685172 0.392074,1.422635 0.168012,0.785621 0.43079,1.452529 0.634467,1.610493 0.311779,0.241674 0.976934,0.259013 6.430152,0.167285 4.319671,-0.07268 6.124429,-0.04971 6.227235,0.07921 0.189439,0.237605 -0.325503,0.387778 -3.874915,1.129726 -1.614678,0.337522 -3.013837,0.671564 -3.109227,0.742286 -0.09518,0.07086 -0.03213,0.301411 0.141259,0.512662 0.821108,1.002175 0.559206,2.597902 -0.462267,2.81674 -0.579062,0.124047 -1.085173,-0.03328 -2.68897,-0.83688 -2.468874,-1.236752 -3.387421,-1.220707 -5.924455,0.103578 -1.91244,0.998237 -2.275101,0.985033 -4.568313,-0.166358 -2.442038,-1.226127 -2.874015,-1.228569 -5.326082,-0.03052 -2.193468,1.071952 -2.917346,1.271112 -3.362794,0.9252 z m 4.294098,-5.985266 c -2.360248,-0.207136 -5.412199,-0.803354 -9.513006,-1.858342 -2.261601,-0.581828 -4.084221,-1.1365 -4.050269,-1.232606 0.109545,-0.310008 2.693775,-1.253688 3.973343,-1.450952 1.784529,-0.275104 4.646225,-0.107261 6.640848,0.389489 1.886029,0.469717 4.13477,1.437236 4.865438,2.093342 0.592002,0.531586 1.711078,1.880221 1.713087,2.064542 0.0018,0.153878 -1.845355,0.151098 -3.629441,-0.0057 z m 13.206364,-0.301874 c -0.144525,-0.135329 -0.3693,-0.699776 -0.499174,-1.254492 -0.198959,-0.84935 -0.182376,-1.122913 0.104992,-1.733478 0.507291,-1.077853 1.169332,-1.33878 5.482248,-2.160575 3.724405,-0.709648 6.456249,-1.137859 7.862877,-1.232479 l 1.558802,-0.10491 -0.616947,0.475861 c -0.339286,0.26174 -1.588083,1.144977 -2.775052,1.962765 -1.186976,0.817788 -2.700825,1.875936 -3.364076,2.351466 -1.817844,1.303254 -3.125044,1.741989 -5.516141,1.851433 -1.594045,0.07296 -2.025215,0.04301 -2.237492,-0.155585 z m -9.661072,-1.56411 c -0.570535,-0.467155 -1.220588,-1.178787 -1.444358,-1.581633 -0.387928,-0.698298 -0.391022,-0.767203 -0.06668,-1.478794 0.617112,-1.354011 3.321124,-3.963745 4.112706,-3.969364 1.054328,-0.0075 3.84982,3.269504 3.863624,4.529122 0.01107,1.022649 -1.042567,1.983199 -3.181014,2.899692 -1.552976,0.665502 -2.058707,0.60406 -3.284208,-0.399014 z m 7.337266,-2.557974 c -0.374204,-1.068521 -0.328421,-1.597437 0.191893,-2.215775 0.538182,-0.63967 0.196678,-0.479351 7.066803,-3.315656 2.952327,-1.218838 5.460581,-2.27247 5.573894,-2.341406 0.43815,-0.266549 4.001346,-1.31159 5.478265,-1.606689 2.19905,-0.439379 6.86792,-0.488799 7.828158,-0.08285 0.372455,0.157474 0.677577,0.32536 0.67813,0.37303 0.0017,0.147628 -2.049404,0.825972 -4.752779,1.571935 -2.950692,0.814195 -6.145142,1.896608 -7.29354,2.47135 -0.430908,0.215642 -0.988145,0.464433 -1.238304,0.552781 -0.250114,0.08841 -1.1973,0.533253 -2.104841,0.988618 -1.776891,0.891628 -3.127304,1.372367 -5.887034,2.095863 -1.507637,0.395269 -3.799744,1.363458 -4.129346,1.744288 -0.09962,0.114672 -0.928907,0.501074 -1.078513,0.50211 -0.04088,7.26e-4 -0.190607,-0.331649 -0.332801,-0.737616 z M 52.523594,38.530413 c -1.54634,-0.620265 -2.539223,-1.146245 -5.324015,-2.820427 -2.85373,-1.715648 -4.856118,-2.747434 -7.754043,-3.995561 -4.155716,-1.789857 -5.849264,-2.25524 -8.891317,-2.443313 -0.922385,-0.05704 -1.677733,-0.166904 -1.678585,-0.244216 -8.31e-4,-0.07726 0.335195,-0.254622 0.74685,-0.393882 0.994011,-0.336503 4.420685,-0.35731 7.643692,-0.04642 6.185196,0.596676 10.670063,1.947321 15.818166,4.763752 2.153316,1.178058 2.609655,1.550568 2.614328,2.134003 0.0055,0.679151 -1.300219,3.451769 -1.649984,3.503876 -0.153871,0.02313 -0.8402,-0.183092 -1.525121,-0.457824 z m 10.01113,-3.698761 c -0.229207,-0.291378 -0.418177,-0.625633 -0.419871,-0.742786 -0.01,-0.67294 2.424678,-3.316354 4.831533,-5.246096 2.732464,-2.190813 5.377427,-3.46529 11.021016,-5.310516 0.625124,-0.204364 2.205907,-0.729703 3.512864,-1.167355 8.153377,-2.730289 9.198046,-3.033586 9.433179,-2.738681 0.12667,0.158873 -2.972609,2.692921 -7.698557,6.294232 -3.155311,2.404512 -5.074965,3.487434 -9.620618,5.427133 -1.135334,0.484469 -3.699868,1.583685 -5.698946,2.442713 -4.128724,1.774159 -4.697192,1.884592 -5.360577,1.041356 z M 52.449208,32.16834 C 44.554489,27.910637 43.837776,27.454406 37.261369,22.500394 35.453253,21.138343 32.750345,19.306789 31.254884,18.430305 l -2.718996,-1.593633 1.6815,-0.0598 c 2.046635,-0.07278 2.818568,0.103941 6.628701,1.517635 5.370026,1.992484 8.464821,3.534877 16.748049,8.346975 7.156196,4.157353 8.701475,5.460677 7.506197,6.3309 -0.20684,0.150734 -0.432135,0.274363 -0.500284,0.274825 -0.06821,5.47e-4 -0.828349,0.264006 -1.689103,0.585649 -0.860772,0.321615 -1.727973,0.585001 -1.927105,0.585296 -0.199132,2.73e-4 -2.239725,-1.012083 -4.534617,-2.249779 z m 9.792166,-0.788063 c -0.305414,-0.194885 -0.798064,-1.142044 -1.200511,-2.308123 -0.43599,-1.263191 0.960857,-4.204439 3.049937,-6.422128 2.92394,-3.103963 6.547208,-5.182172 11.719153,-6.721856 1.307481,-0.389212 3.068073,-0.9221 3.912407,-1.184164 2.251771,-0.698867 2.428928,-0.49715 0.802831,0.914115 -1.625324,1.410137 -3.364035,3.437663 -4.461587,5.201429 -1.22008,1.960582 -2.561258,3.163305 -4.891512,4.386446 -3.419027,1.794767 -5.731011,3.452205 -7.35185,5.270487 -0.896842,1.006056 -1.143948,1.141272 -1.578968,0.863701 z m -2.775215,-2.342521 c -0.229908,-0.165994 -1.780086,-1.09616 -3.444679,-2.067062 -1.664595,-0.970899 -3.49733,-2.139728 -4.072664,-2.59747 -0.575557,-0.457548 -2.22059,-2.146703 -3.65607,-3.753287 -1.435499,-1.606572 -3.14406,-3.470494 -3.796829,-4.142016 -1.694027,-1.742741 -3.564498,-3.877906 -3.566622,-4.071429 -0.001,-0.09079 0.122342,-0.165795 0.273527,-0.166994 0.307166,-0.0022 4.76487,1.813746 6.702298,2.730289 0.687966,0.3255 1.708514,0.805753 2.26789,1.067314 4.150665,1.940636 10.056777,6.357741 10.777374,8.060221 0.223425,0.527914 0.179988,0.857233 -0.346175,2.625081 -0.330875,1.111787 -0.628254,2.155493 -0.660788,2.319333 -0.05664,0.286015 -0.07579,0.285829 -0.477215,-0.004 z m 0.122293,-7.750105 C 58.321013,20.13101 57.193705,18.997824 57.08325,18.769512 56.85416,18.295921 57.05757,17.785039 58.885887,14.24528 61.36094,9.452939 62.095778,8.003641 62.997031,6.1370058 c 0.670437,-1.388605 1.024701,-1.9262053 1.247981,-1.8938372 0.56125,0.081378 0.669533,0.6871282 1.583556,8.8623144 0.590338,5.279978 0.591401,5.769333 0.014,6.518913 -0.751016,0.975249 -3.518499,3.757026 -3.742554,3.761808 -0.114109,0.0024 -1.244245,-0.941983 -2.511726,-2.098581 z m 8.26639,-3.69914 c -0.573162,-1.058708 -0.613018,-1.700308 -0.178047,-2.868054 0.553075,-1.484927 1.969694,-2.787126 3.842564,-3.532279 0.735547,-0.292673 1.369785,-0.503036 1.409397,-0.467526 0.131502,0.117724 -0.652952,3.616581 -1.062276,4.738466 -0.459931,1.260654 -0.640347,1.420018 -2.423089,2.140803 l -1.298175,0.524757 z M 54.6328,17.264954 c -2.01592,-1.249301 -2.762911,-2.445951 -2.775046,-4.445184 -0.0087,-1.399346 0.253674,-2.29659 0.671852,-2.299551 0.406383,-0.0029 2.11533,1.359602 2.951416,2.353178 0.451288,0.536219 0.976723,1.355201 1.167721,1.819926 0.337533,0.821232 0.33362,0.876215 -0.138684,1.958786 -0.267223,0.612628 -0.579002,1.137453 -0.692764,1.166295 -0.11371,0.02913 -0.646759,-0.220221 -1.184516,-0.553416 z"
     id="path853" />
</svg>
